ffmpeg version 6.0-essentials_build-www.gyan.dev Copyright (c) 2000-2023 the FFmpeg developers
  built with gcc 12.2.0 (Rev10, Built by MSYS2 project)
  configuration: --enable-gpl --enable-version3 --enable-static --disable-w32threads --disable-autodetect --enable-fontconfig --enable-iconv --enable-gnutls --enable-libxml2 --enable-gmp --enable-lzma --enable-zlib --enable-libsrt --enable-libssh --enable-libzmq --enable-avisynth --enable-sdl2 --enable-libwebp --enable-libx264 --enable-libx265 --enable-libxvid --enable-libaom --enable-libopenjpeg --enable-libvpx --enable-libass --enable-libfreetype --enable-libfribidi --enable-libvidstab --enable-libvmaf --enable-libzimg --enable-amf --enable-cuda-llvm --enable-cuvid --enable-ffnvcodec --enable-nvdec --enable-nvenc --enable-d3d11va --enable-dxva2 --enable-libmfx --enable-libgme --enable-libopenmpt --enable-libopencore-amrwb --enable-libmp3lame --enable-libtheora --enable-libvo-amrwbenc --enable-libgsm --enable-libopencore-amrnb --enable-libopus --enable-libspeex --enable-libvorbis --enable-librubberband
  libavutil      58.  2.100 / 58.  2.100
  libavcodec     60.  3.100 / 60.  3.100
  libavformat    60.  3.100 / 60.  3.100
  libavdevice    60.  1.100 / 60.  1.100
  libavfilter     9.  3.100 /  9.  3.100
  libswscale      7.  1.100 /  7.  1.100
  libswresample   4. 10.100 /  4. 10.100
  libpostproc    57.  1.100 / 57.  1.100
ffmpeg stats and -progress period set to 10.
[gdigrab @ 000001750f6dc780] Found window Biped, capturing 1023x569x32 at (0,0)
Input #0, gdigrab, from 'title=Biped':
  Duration: N/A, start: 1692028280.100347, bitrate: 558816 kb/s
  Stream #0:0: Video: bmp, bgra, 1023x569, 558816 kb/s, 30 fps, 29.83 tbr, 1000k tbn
Stream mapping:
  Stream #0:0 -> #0:0 (bmp (native) -> h264 (libx264))
Press [q] to stop, [?] for help
[libx264 @ 000001750f6e2900] using cpu capabilities: MMX2 SSE2Fast SSSE3 SSE4.2 AVX FMA3 BMI2 AVX2
[libx264 @ 000001750f6e2900] profile Constrained Baseline, level 3.2, 4:2:0, 8-bit
Output #0, rtp, to 'rtp://127.0.0.1:5004?pkt_size=1200':
  Metadata:
    encoder         : Lavf60.3.100
  Stream #0:0: Video: h264, yuv420p(tv, progressive), 1294x720, q=2-31, 29.83 fps, 90k tbn
    Metadata:
      encoder         : Lavc60.3.100 libx264
    Side data:
      cpb: bitrate max/min/avg: 0/0/0 buffer size: 0 vbv_delay: N/A
SDP:
v=0
o=- 0 0 IN IP4 127.0.0.1
s=No Name
c=IN IP4 127.0.0.1
t=0 0
a=tool:libavformat 60.3.100
m=video 5004 RTP/AVP 96
a=rtpmap:96 H264/90000
a=fmtp:96 packetization-mode=1

frame=    0 fps=0.0 q=22.0 size=       0kB time=00:00:00.00 bitrate=N/A speed=N/A    frame=  303 fps= 30 q=20.0 size=    1497kB time=00:00:10.15 bitrate=1207.5kbits/s dup=5 drop=0 speed=1.01x    frame=  601 fps= 30 q=20.0 size=    2921kB time=00:00:20.14 bitrate=1187.8kbits/s dup=5 drop=1 speed=1.01x    frame=  900 fps= 30 q=20.0 size=    4359kB time=00:00:30.16 bitrate=1183.8kbits/s dup=5 drop=2 speed=   1x    frame= 1199 fps= 30 q=20.0 size=    5813kB time=00:00:40.18 bitrate=1184.9kbits/s dup=6 drop=3 speed=   1x    frame= 1498 fps= 30 q=20.0 size=    7239kB time=00:00:50.21 bitrate=1181.1kbits/s dup=8 drop=4 speed=   1x    frame= 1797 fps= 30 q=20.0 size=    8737kB time=00:01:00.23 bitrate=1188.2kbits/s dup=10 drop=4 speed=   1x    frame= 2095 fps= 30 q=20.0 size=   10206kB time=00:01:10.22 bitrate=1190.5kbits/s dup=10 drop=6 speed=   1x    frame= 2394 fps= 30 q=22.0 size=   12547kB time=00:01:20.24 bitrate=1280.9kbits/s dup=10 drop=8 speed=   1x    frame= 2692 fps= 30 q=17.0 size=   14674kB time=00:01:30.23 bitrate=1332.2kbits/s dup=12 drop=9 speed=   1x    frame= 2989 fps= 30 q=20.0 size=   16338kB time=00:01:40.18 bitrate=1335.9kbits/s dup=46 drop=9 speed=   1x    frame= 3288 fps= 30 q=16.0 size=   17736kB time=00:01:50.21 bitrate=1318.3kbits/s dup=86 drop=9 speed=   1x    frame= 3587 fps= 30 q=17.0 size=   18767kB time=00:02:00.23 bitrate=1278.7kbits/s dup=127 drop=9 speed=   1x    frame= 3886 fps= 30 q=18.0 size=   20533kB time=00:02:10.25 bitrate=1291.3kbits/s dup=169 drop=9 speed=   1x    frame= 4185 fps= 30 q=24.0 size=   22923kB time=00:02:20.27 bitrate=1338.7kbits/s dup=199 drop=9 speed=   1x    frame= 4484 fps= 30 q=21.0 size=   26306kB time=00:02:30.30 bitrate=1433.7kbits/s dup=202 drop=9 speed=   1x    frame= 4782 fps= 30 q=16.0 size=   27429kB time=00:02:40.29 bitrate=1401.8kbits/s dup=208 drop=9 speed=   1x    frame= 5080 fps= 30 q=22.0 size=   30901kB time=00:02:50.27 bitrate=1486.6kbits/s dup=220 drop=9 speed=   1x    frame= 5380 fps= 30 q=20.0 size=   35012kB time=00:03:00.33 bitrate=1590.5kbits/s dup=236 drop=9 speed=   1x    frame= 5679 fps= 30 q=18.0 size=   36677kB time=00:03:10.35 bitrate=1578.4kbits/s dup=246 drop=9 speed=   1x    frame= 5977 fps= 30 q=16.0 size=   38866kB time=00:03:20.34 bitrate=1589.2kbits/s dup=256 drop=9 speed=   1x    frame= 6276 fps= 30 q=17.0 size=   39851kB time=00:03:30.36 bitrate=1551.9kbits/s dup=267 drop=9 speed=   1x    frame= 6575 fps= 30 q=16.0 size=   40738kB time=00:03:40.39 bitrate=1514.2kbits/s dup=286 drop=9 speed=   1x    frame= 6874 fps= 30 q=17.0 size=   41657kB time=00:03:50.41 bitrate=1481.1kbits/s dup=312 drop=9 speed=   1x    frame= 7172 fps= 30 q=19.0 size=   42506kB time=00:04:00.40 bitrate=1448.4kbits/s dup=329 drop=9 speed=   1x    frame= 7471 fps= 30 q=18.0 size=   43419kB time=00:04:10.42 bitrate=1420.3kbits/s dup=339 drop=9 speed=   1x    frame= 7769 fps= 30 q=17.0 size=   44363kB time=00:04:20.41 bitrate=1395.6kbits/s dup=367 drop=9 speed=   1x    frame= 8068 fps= 30 q=18.0 size=   45252kB time=00:04:30.43 bitrate=1370.8kbits/s dup=393 drop=9 speed=   1x    frame= 8367 fps= 30 q=17.0 size=   46149kB time=00:04:40.45 bitrate=1348.0kbits/s dup=405 drop=9 speed=   1x    frame= 8665 fps= 30 q=17.0 size=   47074kB time=00:04:50.44 bitrate=1327.7kbits/s dup=420 drop=9 speed=   1x    frame= 8964 fps= 30 q=17.0 size=   47927kB time=00:05:00.46 bitrate=1306.7kbits/s dup=433 drop=9 speed=   1x    frame= 9263 fps= 30 q=16.0 size=   48922kB time=00:05:10.49 bitrate=1290.7kbits/s dup=452 drop=9 speed=   1x    frame= 9564 fps= 30 q=18.0 size=   49811kB time=00:05:20.58 bitrate=1272.8kbits/s dup=479 drop=9 speed=   1x    frame= 9865 fps= 30 q=16.0 size=   50696kB time=00:05:30.67 bitrate=1255.9kbits/s dup=496 drop=9 speed=   1x    frame=10164 fps= 30 q=16.0 size=   52137kB time=00:05:40.69 bitrate=1253.7kbits/s dup=514 drop=9 speed=   1x    frame=10462 fps= 30 q=18.0 size=   53815kB time=00:05:50.68 bitrate=1257.1kbits/s dup=551 drop=9 speed=   1x    frame=10762 fps= 30 q=16.0 size=   54450kB time=00:06:00.70 bitrate=1236.6kbits/s dup=590 drop=9 speed=   1x    frame=11060 fps= 30 q=15.0 size=   54901kB time=00:06:10.72 bitrate=1213.2kbits/s dup=627 drop=9 speed=   1x    frame=11359 fps= 30 q=16.0 size=   55345kB time=00:06:20.74 bitrate=1190.8kbits/s dup=666 drop=9 speed=   1x    frame=11658 fps= 30 q=16.0 size=   55792kB time=00:06:30.77 bitrate=1169.6kbits/s dup=702 drop=9 speed=   1x    frame=11956 fps= 30 q=16.0 size=   56245kB time=00:06:40.75 bitrate=1149.7kbits/s dup=740 drop=9 speed=   1x    frame=12255 fps= 30 q=18.0 size=   56804kB time=00:06:50.78 bitrate=1132.8kbits/s dup=776 drop=9 speed=   1x    frame=12554 fps= 30 q=16.0 size=   57257kB time=00:07:00.80 bitrate=1114.7kbits/s dup=814 drop=9 speed=   1x    frame=12853 fps= 30 q=18.0 size=   58172kB time=00:07:10.82 bitrate=1106.1kbits/s dup=855 drop=9 speed=   1x    frame=13152 fps= 30 q=16.0 size=   59434kB time=00:07:20.84 bitrate=1104.4kbits/s dup=887 drop=9 speed=   1x    frame=13451 fps= 30 q=16.0 size=   59933kB time=00:07:30.87 bitrate=1088.9kbits/s dup=925 drop=9 speed=   1x    frame=13750 fps= 30 q=13.0 size=   60427kB time=00:07:40.89 bitrate=1074.0kbits/s dup=963 drop=9 speed=   1x    [vost#0:0/libx264 @ 000001750f6e24c0] More than 1000 frames duplicated
frame=14049 fps= 30 q=16.0 size=   60987kB time=00:07:50.91 bitrate=1060.9kbits/s dup=1001 drop=9 speed=   1x    frame=14348 fps= 30 q=16.0 size=   61444kB time=00:08:00.93 bitrate=1046.6kbits/s dup=1040 drop=9 speed=   1x    frame=14647 fps= 30 q=20.0 size=   62090kB time=00:08:10.92 bitrate=1036.1kbits/s dup=1077 drop=9 speed=   1x    frame=14945 fps= 30 q=18.0 size=   63464kB time=00:08:20.94 bitrate=1037.8kbits/s dup=1116 drop=9 speed=   1x    frame=15244 fps= 30 q=15.0 size=   64403kB time=00:08:30.97 bitrate=1032.5kbits/s dup=1152 drop=9 speed=   1x    frame=15543 fps= 30 q=16.0 size=   64995kB time=00:08:40.99 bitrate=1022.0kbits/s dup=1189 drop=9 speed=   1x    frame=15841 fps= 30 q=16.0 size=   65461kB time=00:08:50.98 bitrate=1009.9kbits/s dup=1229 drop=9 speed=   1x    frame=16142 fps= 30 q=26.0 size=   66712kB time=00:09:01.07 bitrate=1010.0kbits/s dup=1241 drop=10 speed=   1x    frame=16441 fps= 30 q=18.0 size=   69634kB time=00:09:11.09 bitrate=1035.1kbits/s dup=1241 drop=11 speed=   1x    frame=16740 fps= 30 q=15.0 size=   72237kB time=00:09:21.11 bitrate=1054.6kbits/s dup=1241 drop=13 speed=   1x    frame=17037 fps= 30 q=18.0 size=   73085kB time=00:09:31.07 bitrate=1048.4kbits/s dup=1284 drop=13 speed=   1x    frame=17335 fps= 30 q=20.0 size=   74770kB time=00:09:41.06 bitrate=1054.1kbits/s dup=1324 drop=13 speed=   1x    frame=17634 fps= 30 q=16.0 size=   75701kB time=00:09:51.08 bitrate=1049.2kbits/s dup=1364 drop=13 speed=   1x    frame=17933 fps= 30 q=15.0 size=   76177kB time=00:10:01.10 bitrate=1038.2kbits/s dup=1404 drop=13 speed=   1x    frame=18231 fps= 30 q=16.0 size=   76659kB time=00:10:11.09 bitrate=1027.6kbits/s dup=1443 drop=13 speed=   1x    frame=18530 fps= 30 q=16.0 size=   77252kB time=00:10:21.11 bitrate=1018.9kbits/s dup=1481 drop=13 speed=   1x    frame=18829 fps= 30 q=17.0 size=   77950kB time=00:10:31.13 bitrate=1011.8kbits/s dup=1521 drop=13 speed=   1x    frame=19128 fps= 30 q=16.0 size=   79078kB time=00:10:41.16 bitrate=1010.4kbits/s dup=1560 drop=13 speed=   1x    frame=19427 fps= 30 q=16.0 size=   79538kB time=00:10:51.18 bitrate=1000.6kbits/s dup=1602 drop=13 speed=   1x    frame=19726 fps= 30 q=16.0 size=   79993kB time=00:11:01.20 bitrate= 991.1kbits/s dup=1643 drop=13 speed=   1x    frame=20027 fps= 30 q=16.0 size=   80568kB time=00:11:11.26 bitrate= 983.2kbits/s dup=1684 drop=13 speed=   1x    frame=20324 fps= 30 q=15.0 size=   81024kB time=00:11:21.25 bitrate= 974.3kbits/s dup=1723 drop=13 speed=   1x    frame=20623 fps= 30 q=16.0 size=   81486kB time=00:11:31.27 bitrate= 965.7kbits/s dup=1761 drop=13 speed=   1x    frame=20922 fps= 30 q=16.0 size=   81943kB time=00:11:41.29 bitrate= 957.2kbits/s dup=1801 drop=13 speed=   1x    frame=21222 fps= 30 q=15.0 size=   82403kB time=00:11:51.35 bitrate= 949.0kbits/s dup=1841 drop=13 speed=   1x    frame=21521 fps= 30 q=16.0 size=   82978kB time=00:12:01.37 bitrate= 942.3kbits/s dup=1881 drop=13 speed=   1x    frame=21819 fps= 30 q=16.0 size=   83433kB time=00:12:11.36 bitrate= 934.5kbits/s dup=1920 drop=13 speed=   1x    frame=22118 fps= 30 q=16.0 size=   83900kB time=00:12:21.38 bitrate= 927.1kbits/s dup=1963 drop=13 speed=   1x    frame=22417 fps= 30 q=16.0 size=   84358kB time=00:12:31.40 bitrate= 919.7kbits/s dup=2002 drop=13 speed=   1x    frame=22716 fps= 30 q=16.0 size=   84821kB time=00:12:41.43 bitrate= 912.6kbits/s dup=2044 drop=13 speed=   1x    frame=23015 fps= 30 q=16.0 size=   85394kB time=00:12:51.45 bitrate= 906.8kbits/s dup=2084 drop=13 speed=   1x    frame=23314 fps= 30 q=16.0 size=   85853kB time=00:13:01.47 bitrate= 900.0kbits/s dup=2125 drop=13 speed=   1x    frame=23613 fps= 30 q=19.0 size=   87200kB time=00:13:11.49 bitrate= 902.5kbits/s dup=2164 drop=13 speed=   1x    frame=23912 fps= 30 q=23.0 size=   90349kB time=00:13:21.51 bitrate= 923.4kbits/s dup=2184 drop=13 speed=   1x    frame=24211 fps= 30 q=24.0 size=   94350kB time=00:13:31.54 bitrate= 952.4kbits/s dup=2194 drop=13 speed=   1x    frame=24511 fps= 30 q=25.0 size=   99437kB time=00:13:41.56 bitrate= 991.5kbits/s dup=2206 drop=13 speed=   1x    frame=24808 fps= 30 q=23.0 size=  102594kB time=00:13:51.55 bitrate=1010.7kbits/s dup=2231 drop=13 speed=   1x    frame=25106 fps= 30 q=16.0 size=  104507kB time=00:14:01.54 bitrate=1017.3kbits/s dup=2242 drop=13 speed=   1x    frame=25406 fps= 30 q=18.0 size=  106319kB time=00:14:11.59 bitrate=1022.7kbits/s dup=2261 drop=13 speed=   1x    frame=25705 fps= 30 q=18.0 size=  107309kB time=00:14:21.62 bitrate=1020.3kbits/s dup=2273 drop=13 speed=   1x    frame=26004 fps= 30 q=20.0 size=  108686kB time=00:14:31.64 bitrate=1021.5kbits/s dup=2303 drop=13 speed=   1x    frame=26303 fps= 30 q=15.0 size=  110083kB time=00:14:41.66 bitrate=1022.8kbits/s dup=2319 drop=13 speed=   1x    frame=26602 fps= 30 q=17.0 size=  111062kB time=00:14:51.68 bitrate=1020.3kbits/s dup=2337 drop=13 speed=   1x    frame=26901 fps= 30 q=17.0 size=  112395kB time=00:15:01.70 bitrate=1021.1kbits/s dup=2352 drop=13 speed=   1x    frame=27199 fps= 30 q=16.0 size=  113631kB time=00:15:11.69 bitrate=1021.0kbits/s dup=2370 drop=13 speed=   1x    frame=27498 fps= 30 q=16.0 size=  114969kB time=00:15:21.72 bitrate=1021.8kbits/s dup=2418 drop=13 speed=   1x    frame=27797 fps= 30 q=16.0 size=  116080kB time=00:15:31.74 bitrate=1020.6kbits/s dup=2471 drop=13 speed=   1x    frame=28095 fps= 30 q=15.0 size=  117212kB time=00:15:41.73 bitrate=1019.6kbits/s dup=2524 drop=13 speed=   1x    frame=28395 fps= 30 q=15.0 size=  118477kB time=00:15:51.78 bitrate=1019.7kbits/s dup=2577 drop=13 speed=   1x    frame=28694 fps= 30 q=17.0 size=  119695kB time=00:16:01.81 bitrate=1019.5kbits/s dup=2643 drop=13 speed=   1x    frame=28993 fps= 30 q=16.0 size=  120771kB time=00:16:11.83 bitrate=1018.0kbits/s dup=2694 drop=13 speed=   1x    frame=29293 fps= 30 q=16.0 size=  121961kB time=00:16:21.88 bitrate=1017.5kbits/s dup=2768 drop=13 speed=   1x    frame=29592 fps= 30 q=17.0 size=  123168kB time=00:16:31.91 bitrate=1017.2kbits/s dup=2823 drop=13 speed=   1x    frame=29890 fps= 30 q=17.0 size=  124525kB time=00:16:41.89 bitrate=1018.2kbits/s dup=2871 drop=13 speed=   1x    frame=30189 fps= 30 q=17.0 size=  126490kB time=00:16:51.92 bitrate=1024.0kbits/s dup=2917 drop=13 speed=   1x    frame=30488 fps= 30 q=20.0 size=  129409kB time=00:17:01.94 bitrate=1037.4kbits/s dup=2980 drop=13 speed=   1x    frame=30788 fps= 30 q=16.0 size=  132269kB time=00:17:12.00 bitrate=1049.9kbits/s dup=3029 drop=13 speed=   1x    frame=31085 fps= 30 q=16.0 size=  133893kB time=00:17:21.95 bitrate=1052.7kbits/s dup=3082 drop=13 speed=   1x    frame=31384 fps= 30 q=18.0 size=  134831kB time=00:17:31.97 bitrate=1050.0kbits/s dup=3154 drop=13 speed=   1x    frame=31683 fps= 30 q=19.0 size=  135702kB time=00:17:42.00 bitrate=1046.8kbits/s dup=3199 drop=13 speed=   1x    frame=31982 fps= 30 q=18.0 size=  136465kB time=00:17:52.02 bitrate=1042.8kbits/s dup=3253 drop=13 speed=   1x    frame=32281 fps= 30 q=16.0 size=  137570kB time=00:18:02.04 bitrate=1041.5kbits/s dup=3296 drop=13 speed=   1x    frame=32580 fps= 30 q=18.0 size=  138586kB time=00:18:12.06 bitrate=1039.6kbits/s dup=3350 drop=13 speed=   1x    frame=32879 fps= 30 q=18.0 size=  139470kB time=00:18:22.08 bitrate=1036.7kbits/s dup=3394 drop=13 speed=   1x    frame=33178 fps= 30 q=20.0 size=  140234kB time=00:18:32.11 bitrate=1033.0kbits/s dup=3442 drop=13 speed=   1x    frame=33478 fps= 30 q=15.0 size=  141172kB time=00:18:42.16 bitrate=1030.6kbits/s dup=3521 drop=13 speed=   1x    frame=33777 fps= 30 q=16.0 size=  142265kB time=00:18:52.18 bitrate=1029.4kbits/s dup=3576 drop=13 speed=   1x    frame=34077 fps= 30 q=17.0 size=  143189kB time=00:19:02.24 bitrate=1026.9kbits/s dup=3621 drop=13 speed=   1x    frame=34376 fps= 30 q=16.0 size=  143981kB time=00:19:12.26 bitrate=1023.6kbits/s dup=3667 drop=13 speed=   1x    frame=34674 fps= 30 q=16.0 size=  144877kB time=00:19:22.25 bitrate=1021.1kbits/s dup=3715 drop=13 speed=   1x    frame=34973 fps= 30 q=15.0 size=  145934kB time=00:19:32.27 bitrate=1019.8kbits/s dup=3765 drop=13 speed=   1x    frame=35272 fps= 30 q=17.0 size=  146902kB time=00:19:42.30 bitrate=1017.9kbits/s dup=3815 drop=13 speed=   1x    frame=35571 fps= 30 q=17.0 size=  147717kB time=00:19:52.32 bitrate=1014.9kbits/s dup=3858 drop=13 speed=   1x    frame=35869 fps= 30 q=16.0 size=  148607kB time=00:20:02.31 bitrate=1012.5kbits/s dup=3899 drop=13 speed=   1x    frame=36168 fps= 30 q=15.0 size=  149660kB time=00:20:12.33 bitrate=1011.3kbits/s dup=3970 drop=13 speed=   1x    frame=36466 fps= 30 q=17.0 size=  150580kB time=00:20:22.32 bitrate=1009.2kbits/s dup=4012 drop=13 speed=   1x    frame=36765 fps= 30 q=18.0 size=  151455kB time=00:20:32.34 bitrate=1006.8kbits/s dup=4060 drop=13 speed=   1x    frame=37065 fps= 30 q=16.0 size=  152470kB time=00:20:42.40 bitrate=1005.3kbits/s dup=4099 drop=13 speed=   1x    frame=37363 fps= 30 q=17.0 size=  153633kB time=00:20:52.39 bitrate=1004.9kbits/s dup=4109 drop=13 speed=   1x    frame=37663 fps= 30 q=17.0 size=  154850kB time=00:21:02.44 bitrate=1004.8kbits/s dup=4127 drop=13 speed=   1x    frame=37960 fps= 30 q=19.0 size=  155891kB time=00:21:12.40 bitrate=1003.7kbits/s dup=4146 drop=13 speed=   1x    frame=38259 fps= 30 q=18.0 size=  156974kB time=00:21:22.42 bitrate=1002.7kbits/s dup=4168 drop=13 speed=   1x    frame=38559 fps= 30 q=19.0 size=  158124kB time=00:21:32.44 bitrate=1002.2kbits/s dup=4193 drop=13 speed=   1x    frame=38858 fps= 30 q=18.0 size=  159191kB time=00:21:42.50 bitrate=1001.2kbits/s dup=4219 drop=13 speed=   1x    frame=39156 fps= 30 q=17.0 size=  160290kB time=00:21:52.49 bitrate=1000.5kbits/s dup=4232 drop=13 speed=   1x    frame=39455 fps= 30 q=19.0 size=  161251kB time=00:22:02.51 bitrate= 998.8kbits/s dup=4268 drop=13 speed=   1x    frame=39755 fps= 30 q=19.0 size=  162513kB time=00:22:12.56 bitrate= 999.0kbits/s dup=4280 drop=13 speed=   1x    frame=40053 fps= 30 q=17.0 size=  163615kB time=00:22:22.55 bitrate= 998.3kbits/s dup=4294 drop=13 speed=   1x    frame=40352 fps= 30 q=18.0 size=  164641kB time=00:22:32.58 bitrate= 997.2kbits/s dup=4337 drop=13 speed=   1x    frame=40652 fps= 30 q=19.0 size=  165611kB time=00:22:42.60 bitrate= 995.7kbits/s dup=4363 drop=13 speed=   1x    frame=40950 fps= 30 q=16.0 size=  166766kB time=00:22:52.62 bitrate= 995.3kbits/s dup=4386 drop=13 speed=   1x    frame=41249 fps= 30 q=17.0 size=  167784kB time=00:23:02.61 bitrate= 994.1kbits/s dup=4424 drop=13 speed=   1x    frame=41548 fps= 30 q=17.0 size=  168917kB time=00:23:12.67 bitrate= 993.6kbits/s dup=4458 drop=13 speed=   1x    frame=41847 fps= 30 q=20.0 size=  169919kB time=00:23:22.69 bitrate= 992.4kbits/s dup=4480 drop=13 speed=   1x    frame=42147 fps= 30 q=15.0 size=  171046kB time=00:23:32.74 bitrate= 991.8kbits/s dup=4492 drop=13 speed=   1x    frame=42446 fps= 30 q=19.0 size=  172089kB time=00:23:42.77 bitrate= 990.8kbits/s dup=4527 drop=13 speed=   1x    